<svg xmlns="http://www.w3.org/2000/svg" viewBox="0 0 512 512" style="height: 512px; width: 512px;"><defs><filter id="shadow-1" height="300%" width="300%" x="-100%" y="-100%"><feFlood flood-color="rgba(90, 18, 12, 1)" result="flood"></feFlood><feComposite in="flood" in2="SourceGraphic" operator="out" result="composite"></feComposite><feGaussianBlur in="composite" stdDeviation="5" result="blur"></feGaussianBlur><feOffset dx="0" dy="0" result="offset"></feOffset><feComposite in2="SourceGraphic" in="offset" operator="atop"></feComposite></filter><radialGradient id="lorc-muscle-fat-gradient-0"><stop offset="0%" stop-color="#104779" stop-opacity="1"></stop><stop offset="100%" stop-color="#0c3a5a" stop-opacity="1"></stop></radialGradient></defs><polygon points="483.27,350.14,350.14,483.27,161.86,483.27,28.73,350.14,28.73,161.86,161.86,28.73,350.14,28.73,483.27,161.86" fill="url(#lorc-muscle-fat-gradient-0)" stroke="#f6f8eb" stroke-opacity="1" stroke-width="10"></polygon><g class="" transform="translate(0,0)" style=""><path d="M164.188 40.375c-168.48 35.59-220.94 167.97-17 187.47-13.147 35.014-21.172 74.948-22.22 114.218-35.694 33.01-59.593 66.343-59.593 66.343l47.72 47.72-39.345 26.218h113.28c-73.368-73.383-21.278-104.5 65.626-104.5 88.096 0 134.175 35.905 65.594 104.5h114.5l-40.563-26.22 47.72-47.718s-22.25-31.027-55.844-62.844c-.65-40.39-8.807-81.663-22.344-117.718 203.953-19.496 151.482-151.878-17-187.47-40.813 30.863 6.55 79.75 43.717 44.626 36.908 54.048 8.752 99.845-71.937 65.594-.02-.022-.042-.04-.063-.063-9.66 28.054-33.333 48.47-61.968 48.47-28.637 0-52.332-20.416-62-48.47l-.064.064C111.736 184.826 83.596 139.042 120.5 85c37.168 35.125 84.5-13.763 43.688-44.625zm90.28 24.063c-25.736 0-48 25.088-48 57.937 0 32.85 22.264 57.938 48 57.938 25.738 0 47.97-25.086 47.97-57.938 0-32.852-22.232-57.938-47.97-57.938z" fill="#f6f8eb" fill-opacity="1" transform="translate(76.8, 76.8) scale(0.7, 0.7) rotate(0, 256, 256) skewX(0) skewY(0)" filter="url(#shadow-1)"></path></g></svg>