<svg xmlns="http://www.w3.org/2000/svg" viewBox="0 0 512 512" style="height: 512px; width: 512px;"><defs><filter id="shadow-1" height="300%" width="300%" x="-100%" y="-100%"><feFlood flood-color="rgba(90, 18, 12, 1)" result="flood"></feFlood><feComposite in="flood" in2="SourceGraphic" operator="out" result="composite"></feComposite><feGaussianBlur in="composite" stdDeviation="5" result="blur"></feGaussianBlur><feOffset dx="0" dy="0" result="offset"></feOffset><feComposite in2="SourceGraphic" in="offset" operator="atop"></feComposite></filter><radialGradient id="delapouite-skills-gradient-0"><stop offset="0%" stop-color="#104779" stop-opacity="1"></stop><stop offset="100%" stop-color="#0c3a5a" stop-opacity="1"></stop></radialGradient></defs><polygon points="483.27,350.14,350.14,483.27,161.86,483.27,28.73,350.14,28.73,161.86,161.86,28.73,350.14,28.73,483.27,161.86" fill="url(#delapouite-skills-gradient-0)" stroke="#f6f8eb" stroke-opacity="1" stroke-width="10"></polygon><g class="" transform="translate(0,0)" style=""><path d="M119.1 25v.1c-25 3.2-47.1 32-47.1 68.8 0 20.4 7.1 38.4 17.5 50.9L99.7 157 84 159.9c-13.7 2.6-23.8 9.9-32.2 21.5-8.5 11.5-14.9 27.5-19.4 45.8-8.2 33.6-9.9 74.7-10.1 110.5h44l11.9 158.4h96.3L185 337.7h41.9c0-36.2-.3-77.8-7.8-111.7-4-18.5-10.2-34.4-18.7-45.9-8.6-11.4-19.2-18.7-34.5-21l-16-2.5L160 144c10-12.5 16.7-30.2 16.7-50.1 0-39.2-24.8-68.8-52.4-68.8-2.9 0-4.7-.1-5.2-.1zM440 33c-17.2 0-31 13.77-31 31s13.8 31 31 31 31-13.77 31-31-13.8-31-31-31zM311 55v48H208v18h103v158h-55v18h55v110H208v18h103v32h80.8c-.5-2.9-.8-5.9-.8-9 0-3.1.3-6.1.8-9H329V297h62.8c-.5-2.9-.8-5.9-.8-9 0-3.1.3-6.1.8-9H329V73h62.8c-.5-2.92-.8-5.93-.8-9 0-3.07.3-6.08.8-9H311zm129 202c-17.2 0-31 13.8-31 31s13.8 31 31 31 31-13.8 31-31-13.8-31-31-31zm0 160c-17.2 0-31 13.8-31 31s13.8 31 31 31 31-13.8 31-31-13.8-31-31-31z" fill="#f6f8eb" fill-opacity="1" transform="translate(76.8, 76.8) scale(0.7, 0.7) rotate(0, 256, 256) skewX(0) skewY(0)" filter="url(#shadow-1)"></path></g></svg>